<svg width="28" height="32" viewBox="0 0 28 32" fill="none" xmlns="http://www.w3.org/2000/svg">
<g clip-path="url(#clip0_9_57)">
<path d="M24.6253 2.24023H3.06323C2.28342 2.24023 1.53555 2.54894 0.98414 3.09843C0.43273 3.64793 0.122952 4.3932 0.122952 5.17031L0.122952 26.6575C0.122952 27.4346 0.43273 28.1799 0.98414 28.7294C1.53555 29.2789 2.28342 29.5876 3.06323 29.5876H11.4706V20.2901H7.61148V15.9139H11.4706V12.5785C11.4706 8.78467 13.7371 6.68906 17.2084 6.68906C18.8709 6.68906 20.6094 6.98451 20.6094 6.98451V10.7081H18.6939C16.8066 10.7081 16.2179 11.8753 16.2179 13.0723V15.9139H20.4311L19.7573 20.2901H16.2179V29.5876H24.6253C25.4051 29.5876 26.153 29.2789 26.7044 28.7294C27.2558 28.1799 27.5656 27.4346 27.5656 26.6575V5.17031C27.5656 4.3932 27.2558 3.64793 26.7044 3.09843C26.153 2.54894 25.4051 2.24023 24.6253 2.24023V2.24023Z" fill="#F1F1F1"/>
</g>
<defs>
<clipPath id="clip0_9_57">
<rect width="27.4426" height="31.2541" fill="white" transform="translate(0.122952 0.286865)"/>
</clipPath>
</defs>
</svg>
