<svg width="32" height="36" viewBox="0 0 32 36" fill="none" xmlns="http://www.w3.org/2000/svg">
<g clip-path="url(#clip0_9_55)">
<path d="M15.634 9.86671C11.1971 9.86671 7.61818 13.4565 7.61818 17.907C7.61818 22.3575 11.1971 25.9473 15.634 25.9473C20.071 25.9473 23.6499 22.3575 23.6499 17.907C23.6499 13.4565 20.071 9.86671 15.634 9.86671ZM15.634 23.1342C12.7667 23.1342 10.4227 20.79 10.4227 17.907C10.4227 15.024 12.7598 12.6798 15.634 12.6798C18.5083 12.6798 20.8454 15.024 20.8454 17.907C20.8454 20.79 18.5013 23.1342 15.634 23.1342V23.1342ZM25.8474 9.53783C25.8474 10.5805 25.0103 11.4132 23.9778 11.4132C22.9383 11.4132 22.1081 10.5735 22.1081 9.53783C22.1081 8.50218 22.9453 7.66246 23.9778 7.66246C25.0103 7.66246 25.8474 8.50218 25.8474 9.53783ZM31.1564 11.4412C31.0378 8.92903 30.4658 6.70378 28.631 4.87041C26.8032 3.03703 24.5847 2.46322 22.0802 2.33726C19.4989 2.19031 11.7621 2.19031 9.18089 2.33726C6.68335 2.45622 4.46487 3.03003 2.63009 4.86341C0.795304 6.69679 0.230218 8.92203 0.104644 11.4342C-0.0418597 14.0233 -0.0418597 21.7837 0.104644 24.3728C0.223242 26.885 0.795304 29.1102 2.63009 30.9436C4.46487 32.777 6.67638 33.3508 9.18089 33.4767C11.7621 33.6237 19.4989 33.6237 22.0802 33.4767C24.5847 33.3578 26.8032 32.784 28.631 30.9436C30.4588 29.1102 31.0309 26.885 31.1564 24.3728C31.3029 21.7837 31.3029 14.0303 31.1564 11.4412V11.4412ZM27.8217 27.1509C27.2776 28.5224 26.2241 29.579 24.8498 30.1319C22.7918 30.9506 17.9083 30.7616 15.634 30.7616C13.3597 30.7616 8.4693 30.9436 6.41825 30.1319C5.05088 29.586 3.99745 28.5294 3.44632 27.1509C2.63009 25.0866 2.81845 20.1882 2.81845 17.907C2.81845 15.6258 2.63706 10.7204 3.44632 8.66312C3.99048 7.29159 5.04391 6.23494 6.41825 5.68213C8.47628 4.86341 13.3597 5.05234 15.634 5.05234C17.9083 5.05234 22.7987 4.87041 24.8498 5.68213C26.2172 6.22795 27.2706 7.28459 27.8217 8.66312C28.638 10.7274 28.4496 15.6258 28.4496 17.907C28.4496 20.1882 28.638 25.0936 27.8217 27.1509Z" fill="#F1F1F1"/>
</g>
<defs>
<clipPath id="clip0_9_55">
<rect width="31.2541" height="35.8279" fill="white"/>
</clipPath>
</defs>
</svg>
