<svg width="25" height="28" viewBox="0 0 25 28" fill="none" xmlns="http://www.w3.org/2000/svg">
<g clip-path="url(#clip0_9_59)">
<path d="M24.0658 11.5121C21.7436 11.5176 19.4783 10.8022 17.59 9.46683V18.7799C17.5893 20.5048 17.0556 22.1884 16.0603 23.6056C15.065 25.0227 13.6554 26.1059 12.0201 26.7103C10.3847 27.3147 8.60162 27.4115 6.90913 26.9877C5.21664 26.5639 3.69545 25.6397 2.54897 24.3388C1.40249 23.0379 0.685363 21.4221 0.493481 19.7077C0.301599 17.9933 0.644107 16.2618 1.47521 14.7449C2.30631 13.2279 3.58639 11.9978 5.14428 11.219C6.70217 10.4401 8.46362 10.1497 10.1931 10.3866V15.0707C9.40168 14.8248 8.55185 14.8322 7.76495 15.0919C6.97806 15.3516 6.29435 15.8503 5.81145 16.5167C5.32856 17.1832 5.07118 17.9833 5.07606 18.8029C5.08095 19.6225 5.34785 20.4196 5.83866 21.0804C6.32947 21.7412 7.01908 22.2319 7.80902 22.4824C8.59895 22.7329 9.44881 22.7304 10.2372 22.4753C11.0257 22.2202 11.7123 21.7255 12.1992 21.0618C12.686 20.3982 12.9481 19.5995 12.9481 18.7799V0.57373H17.59C17.5867 0.960981 17.6196 1.3477 17.6881 1.72901V1.72901C17.8494 2.58022 18.1847 3.38997 18.6737 4.10874C19.1626 4.8275 19.7949 5.44017 20.5317 5.90928C21.58 6.59405 22.8091 6.95903 24.0658 6.95877V11.5121Z" fill="#F1F1F1"/>
</g>
<defs>
<clipPath id="clip0_9_59">
<rect width="23.6311" height="26.6803" fill="white" transform="translate(0.434425 0.57373)"/>
</clipPath>
</defs>
</svg>
