<svg width="104" height="104" viewBox="0 0 104 104" fill="none" xmlns="http://www.w3.org/2000/svg">
<path d="M94.25 31.525V46.6375C93.4375 46.6375 92.4625 46.8 91.4875 46.8C84.175 46.8 77.35 44.0375 72.15 39.65V71.825C72.15 78.325 70.0375 84.5 66.3 89.375C61.1 96.3625 52.65 101.075 43.0625 101.075C32.6625 101.075 23.5625 95.55 18.525 87.425C23.725 92.3 30.7125 95.3875 38.35 95.3875C47.775 95.3875 56.225 90.8375 61.425 83.6875C65 78.8125 67.275 72.8 67.275 66.1375V33.8C72.475 38.35 79.1375 40.95 86.6125 40.95C87.5875 40.95 88.4 40.95 89.375 40.7875V31.0375C90.8375 31.3625 92.1375 31.525 93.6 31.525H94.25Z" fill="#FF004F"/>
<path d="M47.125 42.7375V59.475C45.9875 59.15 44.6875 58.9875 43.55 58.9875C36.4 58.9875 30.55 65 30.55 72.3125C30.55 73.9375 30.875 75.4 31.3625 76.8625C28.1125 74.425 25.8375 70.525 25.8375 66.1375C25.8375 58.825 31.6875 52.8125 38.8375 52.8125C40.1375 52.8125 41.275 52.975 42.4125 53.3V42.575C42.7375 42.575 43.0625 42.575 43.3875 42.575C44.6875 42.575 45.9875 42.575 47.125 42.7375Z" fill="#FF004F"/>
<path d="M74.5875 19.5C71.6625 16.9 69.55 13.325 68.4125 9.58752H72.3125C72.3125 10.4 72.3125 11.05 72.3125 11.8625C72.6375 14.4625 73.45 17.0625 74.5875 19.5Z" fill="#FF004F"/>
<path d="M89.5375 31.2V40.95C88.725 41.1125 87.75 41.1125 86.775 41.1125C79.4625 41.1125 72.6375 38.35 67.4375 33.9625V66.1375C67.4375 72.6375 65.325 78.8125 61.5875 83.6875C56.225 90.8375 47.9375 95.3875 38.5125 95.3875C30.875 95.3875 23.8875 92.3 18.6875 87.425C15.925 82.875 14.3 77.675 14.3 71.9875C14.3 56.225 26.8125 43.3875 42.4125 42.9V53.625C41.275 53.3 39.975 53.1375 38.8375 53.1375C31.6875 53.1375 25.8375 59.15 25.8375 66.4625C25.8375 70.85 27.95 74.9125 31.3625 77.1875C33.15 82.225 38.025 85.9625 43.55 85.9625C50.7 85.9625 56.55 79.95 56.55 72.6375V9.58752H68.4125C69.55 13.4875 71.6625 16.9 74.5875 19.5C77.5125 25.35 83.0375 29.7375 89.5375 31.2Z" fill="black"/>
<path d="M42.4125 37.05V42.575C26.8125 43.0625 14.3 55.9 14.3 71.6625C14.3 77.35 15.925 82.55 18.6875 87.1C13.1625 81.7375 9.75 74.2625 9.75 65.8125C9.75 49.725 22.75 36.725 38.675 36.725C39.975 36.725 41.275 36.8875 42.4125 37.05Z" fill="#00F7EF"/>
<path d="M68.4125 9.5875H56.55V72.3125C56.55 79.625 50.7 85.6375 43.55 85.6375C37.8625 85.6375 33.15 82.0625 31.3625 76.8625C33.475 78.325 36.075 79.3 38.8375 79.3C45.9875 79.3 51.8375 73.45 51.8375 66.1375V3.25H67.6V3.575C67.6 4.225 67.6 4.875 67.7625 5.525C67.7625 6.825 68.0875 8.2875 68.4125 9.5875Z" fill="#00F7EF"/>
<path d="M89.5375 25.1875V31.0375C83.0375 29.7375 77.5125 25.35 74.425 19.5C78.4875 23.2375 83.6875 25.35 89.5375 25.1875Z" fill="#00F7EF"/>
</svg>
