<svg width="30" height="35" viewBox="0 0 30 35" fill="none" xmlns="http://www.w3.org/2000/svg">
<path d="M25.5067 6.6377C22.7009 3.7666 18.9643 2.1875 14.9933 2.1875C6.79687 2.1875 0.127232 8.99609 0.127232 17.3633C0.127232 20.0361 0.810268 22.6475 2.10937 24.9512L0 32.8125L7.8817 30.7002C10.0513 31.9102 12.4955 32.5459 14.9866 32.5459H14.9933C23.183 32.5459 30 25.7373 30 17.3701C30 13.3164 28.3125 9.50879 25.5067 6.6377V6.6377ZM14.9933 29.9893C12.7701 29.9893 10.5937 29.3809 8.69866 28.2324L8.25 27.959L3.57589 29.21L4.82143 24.5547L4.52679 24.0762C3.28795 22.0664 2.63839 19.749 2.63839 17.3633C2.63839 10.4111 8.18304 4.75098 15 4.75098C18.3013 4.75098 21.4018 6.06348 23.7321 8.44922C26.0625 10.835 27.4955 14 27.4888 17.3701C27.4888 24.3291 21.8036 29.9893 14.9933 29.9893V29.9893ZM21.7701 20.542C21.4018 20.3506 19.5737 19.4346 19.2321 19.3115C18.8906 19.1816 18.6429 19.1201 18.3951 19.5029C18.1473 19.8857 17.4375 20.7334 17.2165 20.9932C17.0022 21.2461 16.7812 21.2803 16.4129 21.0889C14.2299 19.9746 12.7969 19.0996 11.3571 16.5771C10.9754 15.9072 11.7388 15.9551 12.4487 14.5059C12.5692 14.2529 12.5089 14.0342 12.4152 13.8428C12.3214 13.6514 11.5781 11.7852 11.2701 11.0264C10.9687 10.2881 10.6607 10.3906 10.433 10.377C10.2187 10.3633 9.97098 10.3633 9.72321 10.3633C9.47545 10.3633 9.07366 10.459 8.73214 10.835C8.39062 11.2178 7.43304 12.1338 7.43304 14C7.43304 15.8662 8.76563 17.6709 8.94643 17.9238C9.13393 18.1768 11.5647 22.0049 15.2946 23.6523C17.6518 24.6914 18.5759 24.7803 19.7545 24.6025C20.471 24.4932 21.9509 23.6865 22.2589 22.7979C22.567 21.9092 22.567 21.1504 22.4732 20.9932C22.3862 20.8223 22.1384 20.7266 21.7701 20.542Z" fill="#2BC533"/>
</svg>
