<svg width="108" height="108" viewBox="0 0 108 108" fill="none" xmlns="http://www.w3.org/2000/svg">
<path d="M100.488 30.5623C99.3718 26.3607 96.0839 23.0513 91.9091 21.928C84.3423 19.8876 54 19.8876 54 19.8876C54 19.8876 23.6577 19.8876 16.0905 21.9282C11.9159 23.0515 8.62798 26.3607 7.51212 30.5626C5.48459 38.1784 5.48459 54.069 5.48459 54.069C5.48459 54.069 5.48459 69.9598 7.51212 77.5755C8.62798 81.7773 11.9159 84.9488 16.0905 86.0722C23.6577 88.1126 54 88.1126 54 88.1126C54 88.1126 84.3423 88.1126 91.9091 86.072C96.0839 84.9486 99.3718 81.7771 100.488 77.5752C102.515 69.9596 102.515 54.0688 102.515 54.0688C102.515 54.0688 102.515 38.1784 100.488 30.5623Z" fill="#FF0000"/>
<path d="M44.0762 68.4963V39.6415L69.4364 54.0692L44.0762 68.4963Z" fill="white"/>
</svg>
