<svg width="36" height="32" viewBox="0 0 36 32" fill="none" xmlns="http://www.w3.org/2000/svg">
<g clip-path="url(#clip0_9_61)">
<path d="M34.3962 8.20125C34.0138 6.79279 32.8872 5.68353 31.4567 5.30709C28.864 4.62305 18.4672 4.62305 18.4672 4.62305C18.4672 4.62305 8.07051 4.62305 5.47766 5.30709C4.04722 5.68359 2.92062 6.79279 2.53824 8.20125C1.84351 10.7542 1.84351 16.0806 1.84351 16.0806C1.84351 16.0806 1.84351 21.407 2.53824 23.9599C2.92062 25.3684 4.04722 26.4314 5.47766 26.8079C8.07051 27.4919 18.4672 27.4919 18.4672 27.4919C18.4672 27.4919 28.8639 27.4919 31.4567 26.8079C32.8872 26.4314 34.0138 25.3684 34.3962 23.9599C35.0909 21.407 35.0909 16.0806 35.0909 16.0806C35.0909 16.0806 35.0909 10.7542 34.3962 8.20125V8.20125ZM15.0669 20.9166V11.2446L23.7565 16.0807L15.0669 20.9166V20.9166Z" fill="#F1F1F1"/>
</g>
<defs>
<clipPath id="clip0_9_61">
<rect width="35.0656" height="30.4918" fill="white" transform="translate(0.934418 0.811523)"/>
</clipPath>
</defs>
</svg>
